<svg width="24" height="24" viewBox="0 0 24 24" fill="none" xmlns="http://www.w3.org/2000/svg">
<path d="M19.175 20C19.175 20.95 18.4 21.675 17.475 21.675H4.025C3.075 21.675 2.325 20.925 2.325 20V6.49999C2.325 5.57499 3.1 4.82499 4.025 4.82499H10.9L13.075 2.64999H4.025C1.875 2.64999 0.125 4.37499 0.125 6.49999V20C0.125 22.15 1.875 23.875 4.025 23.875H17.5C19.65 23.875 21.4 22.15 21.4 20V10.925L19.225 13.1V20H19.175Z" fill="#E79331"/>
<path d="M23.375 3.675L20.325 0.65C20 0.325 19.55 0.125 19.1 0.125C18.625 0.125 18.2 0.3 17.875 0.625L6.62496 11.875C6.32496 12.175 6.14996 12.575 6.12496 13L5.92496 16.225C5.89996 16.725 6.07496 17.225 6.42496 17.575C6.74996 17.9 7.19996 18.075 7.64996 18.075C7.67496 18.075 7.72496 18.075 7.74996 18.075L11 17.875C11.425 17.85 11.825 17.675 12.125 17.375L23.35 6.15C23.675 5.825 23.85 5.375 23.85 4.925C23.875 4.45 23.7 4 23.375 3.675ZM16.2 5.4L18.625 7.825L13 13.425L10.575 11L16.2 5.4ZM10.7 15.725L8.12496 15.875L8.27496 13.3L8.99996 12.575L11.425 15L10.7 15.725ZM20.15 6.25L17.75 3.85L19.1 2.5L21.525 4.925L20.15 6.25Z" fill="#E79331"/>
</svg>
