<svg width="424" height="512" viewBox="0 0 424 512" fill="none" xmlns="http://www.w3.org/2000/svg">
<path d="M212 0C95.167 0 0.466995 94.708 0.466995 211.533C0.466995 372.184 212 512 212 512C212 512 423.533 372.184 423.533 211.533C423.533 94.708 328.833 0 212 0ZM212 375.941C121.2 375.941 47.6 302.341 47.6 211.533C47.6 120.733 121.201 47.125 212 47.125C302.799 47.125 376.417 120.733 376.417 211.533C376.417 302.342 302.8 375.941 212 375.941Z" fill="#fff"/>
<path d="M271.524 246.7V126.316C271.524 118.016 264.774 111.266 256.458 111.266H166.191C157.875 111.266 151.141 118.016 151.141 126.316V246.7C151.141 255 157.874 261.733 166.191 261.733H256.458C264.774 261.733 271.524 255 271.524 246.7ZM195.4 126.316H225.5C227.85 126.316 229.759 128.233 229.759 130.583C229.759 132.916 227.85 134.816 225.5 134.816H195.4C193.058 134.816 191.158 132.917 191.158 130.583C191.158 128.233 193.058 126.316 195.4 126.316ZM181.233 246.7C175.091 246.7 170.108 241.717 170.108 235.566C170.108 229.433 175.091 224.45 181.233 224.45C187.375 224.45 192.358 229.433 192.358 235.566C192.358 241.717 187.375 246.7 181.233 246.7ZM241.441 246.7C235.283 246.7 230.299 241.717 230.299 235.566C230.299 229.433 235.282 224.45 241.441 224.45C247.557 224.45 252.557 229.433 252.557 235.566C252.558 241.717 247.558 246.7 241.441 246.7ZM252.558 209.4H170.109V149.866H252.558V209.4Z" fill="#fff"/>
<path d="M123.633 307.533H154.092L195.125 270.25H168.858L123.633 307.533Z" fill="#fff"/>
<path d="M227.524 270.25L268.558 307.533H299.033L253.8 270.25H227.524Z" fill="#fff"/>
</svg>
