<svg width="20" height="20" viewBox="0 0 20 20" fill="none" xmlns="http://www.w3.org/2000/svg">
<path d="M9.90001 6C10.9 6 11.9 6.4 12.6 7.2L14 5.8C12.9 4.6 11.4 4 9.90001 4C8.30001 4 6.90001 4.6 5.70001 5.8C3.40001 8.1 3.40001 11.9 5.70001 14.3C6.80001 15.4 8.30001 16 9.90001 16C11.5 16 12.9 15.4 14.1 14.2L12.7 12.8C11.2 14.3 8.70001 14.3 7.30001 12.8C5.80001 11.2 5.80001 8.7 7.30001 7.1C7.90001 6.4 8.80001 6 9.90001 6Z" fill="#fff"/>
<path d="M10 0C4.5 0 0 4.5 0 10C0 15.5 4.5 20 10 20C15.5 20 20 15.5 20 10C20 4.5 15.5 0 10 0ZM10 18C5.6 18 2 14.4 2 10C2 5.6 5.6 2 10 2C14.4 2 18 5.6 18 10C18 14.4 14.4 18 10 18Z" fill="#fff"/>
</svg>
